<?xml version="1.0" standalone="no"?>
<!DOCTYPE svg PUBLIC "-//W3C//DTD SVG 20010904//EN"
 "http://www.w3.org/TR/2001/REC-SVG-20010904/DTD/svg10.dtd">
<svg version="1.0" xmlns="http://www.w3.org/2000/svg"
 width="512.000000pt" height="512.000000pt" viewBox="0 0 512.000000 512.000000"
 preserveAspectRatio="xMidYMid meet">
<metadata>
Created by potrace 1.11, written by Peter Selinger 2001-2013
</metadata>
<g transform="translate(0.000000,512.000000) scale(0.100000,-0.100000)"
fill="#000000" stroke="none">
<path d="M2490 4902 c-19 -10 -45 -37 -57 -58 -22 -38 -23 -48 -23 -320 0
-317 3 -335 67 -379 74 -50 178 -22 217 58 14 30 16 76 16 317 0 272 -1 284
-22 321 -28 50 -57 69 -116 75 -35 4 -56 0 -82 -14z"/>
<path d="M1289 4697 c-67 -34 -98 -106 -76 -172 6 -16 81 -136 168 -266 126
-189 165 -240 193 -253 72 -34 154 -11 197 56 15 25 19 45 16 83 -3 46 -17 71
-145 263 -169 253 -180 268 -208 287 -39 25 -98 26 -145 2z"/>
<path d="M3701 4698 c-40 -20 -63 -50 -205 -262 -147 -219 -160 -243 -163
-290 -9 -116 106 -191 213 -140 27 13 65 61 177 228 78 116 153 228 165 249
81 131 -53 284 -187 215z"/>
<path d="M2467 3894 c-1 -1 -40 -4 -87 -8 -496 -34 -1028 -234 -1550 -582
-266 -177 -553 -413 -741 -610 -78 -83 -94 -116 -84 -181 6 -44 15 -56 133
-173 104 -104 232 -218 367 -329 112 -91 371 -270 529 -365 281 -169 722 -349
960 -392 16 -3 32 -7 36 -9 7 -4 160 -31 225 -40 140 -18 376 -23 510 -11 735
68 1524 473 2204 1131 149 144 175 199 132 283 -10 20 -72 89 -137 152 -625
606 -1365 1007 -2039 1105 -22 4 -51 8 -65 10 -92 14 -382 28 -393 19z m288
-309 c273 -24 606 -120 890 -256 88 -42 279 -144 325 -174 19 -12 76 -49 125
-80 182 -117 440 -319 592 -466 l73 -69 -58 -55 c-379 -355 -829 -650 -1244
-814 -194 -77 -407 -137 -553 -156 -27 -4 -52 -9 -55 -10 -10 -6 -225 -19
-310 -18 -172 1 -305 18 -485 61 -38 9 -72 17 -75 17 -27 6 -109 31 -166 50
-367 124 -771 351 -1122 632 -98 79 -126 103 -236 203 -108 99 -101 86 -63
123 19 17 64 59 102 92 37 33 73 65 79 70 6 6 56 47 111 91 319 255 623 438
965 580 69 28 313 110 352 118 13 2 55 11 94 20 38 8 92 18 120 22 27 3 51 7
54 9 3 2 46 6 95 10 50 4 91 8 92 9 5 4 226 -2 298 -9z"/>
<path d="M2430 3282 c-58 -8 -190 -58 -254 -96 -79 -47 -189 -150 -236 -219
-298 -447 -58 -1049 465 -1162 80 -18 238 -17 322 2 467 105 717 624 509 1058
-102 214 -298 365 -536 415 -50 10 -207 12 -270 2z m321 -335 c91 -43 168
-118 210 -202 39 -81 42 -95 42 -205 1 -104 -2 -117 -32 -186 -48 -108 -158
-206 -273 -244 -191 -62 -421 24 -524 196 -47 80 -63 147 -61 252 3 89 6 104
39 172 56 116 143 194 270 241 43 16 72 19 153 16 91 -3 108 -7 176 -40z"/>
<path d="M2495 2673 c-80 -43 -104 -117 -65 -198 22 -46 80 -85 126 -85 47 0
108 36 132 79 27 48 28 83 1 137 -36 75 -123 105 -194 67z"/>
<path d="M1585 1120 c-11 -5 -30 -17 -41 -27 -34 -28 -326 -473 -334 -508 -19
-83 36 -163 122 -179 38 -6 103 13 126 38 11 11 89 124 173 251 139 208 153
234 156 280 5 59 -18 104 -69 135 -34 21 -98 26 -133 10z"/>
<path d="M3402 1111 c-51 -33 -74 -77 -69 -136 3 -46 17 -72 162 -289 88 -131
171 -246 185 -256 41 -29 102 -32 152 -7 54 28 81 73 80 134 -1 43 -14 66
-162 287 -88 133 -173 250 -187 260 -40 29 -120 32 -161 7z"/>
<path d="M2516 994 c-42 -15 -82 -53 -97 -91 -5 -13 -9 -151 -9 -306 0 -268 1
-284 21 -317 29 -48 57 -68 105 -76 62 -9 127 22 153 75 20 38 21 57 21 322 0
235 -3 286 -16 314 -21 45 -44 64 -96 79 -35 11 -50 11 -82 0z"/>
</g>
</svg>
